<svg viewBox="10 205 478 89" xmlns="http://www.w3.org/2000/svg" style="max-height: 500px" width="478" height="89">
<g stroke-width="0.3" stroke-opacity="0.00" stroke="#000000" fill-opacity="0.0" fill="None"><path d="M 0.00 500.00 &#10;L 500.00 500.00&#10;L 500.00 0.00&#10;L 0.00 0.00&#10;L 0.00 500.00&#10;M 417.00 217.00 &#10;C 417.00 221.00 417.00 225.00 417.00 229.00&#10;C 410.14 223.14 398.17 227.19 389.00 226.00&#10;C 389.00 231.00 389.00 236.00 389.00 241.00&#10;C 396.53 240.66 404.92 242.24 411.00 239.00&#10;C 411.00 243.00 411.00 247.00 411.00 251.00&#10;C 405.19 247.06 396.66 247.96 389.00 248.00&#10;C 389.00 253.67 389.00 259.33 389.00 265.00&#10;C 398.60 264.11 409.42 267.04 418.00 263.00&#10;C 418.00 266.67 418.00 270.33 418.00 274.00&#10;C 405.89 270.13 391.96 272.77 379.00 272.00&#10;C 382.29 255.74 382.29 235.26 379.00 219.00&#10;C 391.54 217.93 405.51 221.31 417.00 217.00&#10;M 125.00 232.00 &#10;C 127.48 231.61 130.18 230.25 133.00 231.00&#10;C 134.88 217.46 148.03 227.72 145.00 237.00 C 141.97 246.28 143.21 254.18 139.22 262.22 C 135.24 270.26 134.64 275.83 127.00 281.00&#10;C 119.81 284.36 109.35 281.21 101.00 282.00 C 92.65 282.79 82.48 281.79 74.00 282.00 C 65.52 282.21 56.22 281.84 48.00 281.00 C 39.78 280.16 34.00 278.94 29.25 271.75 C 24.49 264.57 23.33 263.49 20.22 253.78 C 17.11 244.07 23.22 245.08 30.03 248.97 C 36.83 252.87 52.86 249.44 48.00 241.00&#10;C 62.04 225.51 83.67 224.80 102.00 218.00&#10;C 104.54 224.04 113.98 226.36 115.00 233.00&#10;C 118.58 233.62 121.40 231.38 125.00 232.00&#10;M 203.00 224.00 &#10;C 201.53 227.47 199.95 232.95 196.00 234.00&#10;C 194.96 223.65 178.36 222.57 173.08 231.08 C 167.80 239.60 166.79 252.96 173.75 261.25 C 180.71 269.53 199.86 267.18 195.00 253.00&#10;C 190.31 253.05 185.33 252.22 182.00 255.00&#10;C 182.00 251.33 182.00 247.67 182.00 244.00&#10;C 188.27 247.98 198.13 245.16 206.00 246.00&#10;C 203.28 251.09 203.18 258.40 205.00 264.00&#10;C 196.46 274.18 177.86 277.09 168.25 266.75 C 158.63 256.41 157.84 239.08 166.25 227.25 C 174.67 215.43 191.90 217.41 203.00 224.00&#10;M 242.00 218.00 &#10;C 272.69 220.74 268.48 276.42 237.00 273.00 C 205.52 269.58 210.41 215.18 242.00 218.00&#10;M 284.00 250.00 &#10;C 284.77 257.30 282.13 266.26 286.00 272.00&#10;C 281.67 272.00 277.33 272.00 273.00 272.00&#10;C 276.30 256.58 276.30 234.42 273.00 219.00&#10;C 286.42 220.40 307.02 213.58 311.97 230.03 C 316.93 246.47 297.39 252.63 284.00 250.00&#10;M 336.00 219.00 &#10;C 332.29 225.66 334.66 234.35 334.00 242.00&#10;C 341.33 242.00 348.67 242.00 356.00 242.00&#10;C 355.35 234.32 357.70 225.69 354.00 219.00&#10;C 358.00 219.00 362.00 219.00 366.00 219.00&#10;C 362.78 235.47 362.66 255.70 366.00 272.00&#10;C 362.00 272.00 358.00 272.00 354.00 272.00&#10;C 357.92 266.04 355.20 256.55 356.00 249.00&#10;C 348.67 249.00 341.33 249.00 334.00 249.00&#10;C 334.81 256.61 332.06 265.96 336.00 272.00&#10;C 332.00 272.00 328.00 272.00 324.00 272.00&#10;C 327.29 255.74 327.29 235.26 324.00 219.00&#10;C 328.00 219.00 332.00 219.00 336.00 219.00&#10;M 460.00 249.00 &#10;C 464.06 256.80 468.24 265.32 473.00 272.00&#10;C 468.67 272.00 464.33 272.00 460.00 272.00&#10;C 463.71 265.00 453.35 257.47 452.00 250.00&#10;C 448.00 250.00 444.00 250.00 440.00 250.00&#10;C 440.79 257.39 437.73 266.83 443.00 272.00&#10;C 438.33 272.00 433.67 272.00 429.00 272.00&#10;C 433.95 266.40 432.04 254.70 432.00 246.00 C 431.96 237.30 433.99 225.46 429.00 219.00&#10;C 440.53 220.03 456.35 216.00 465.75 223.25 C 475.14 230.51 471.04 247.02 460.00 249.00 Z"/>
</g>
<g stroke-width="0.3" stroke-opacity="0.89" stroke="#FCFCFC" fill-opacity="0.0" fill="None"><path d="M 417.00 217.00 &#10;C 405.51 221.31 391.54 217.93 379.00 219.00&#10;C 382.29 235.26 382.29 255.74 379.00 272.00&#10;C 391.96 272.77 405.89 270.13 418.00 274.00&#10;C 418.00 270.33 418.00 266.67 418.00 263.00&#10;C 409.42 267.04 398.60 264.11 389.00 265.00&#10;C 389.00 259.33 389.00 253.67 389.00 248.00&#10;C 396.66 247.96 405.19 247.06 411.00 251.00&#10;C 411.00 247.00 411.00 243.00 411.00 239.00&#10;C 404.92 242.24 396.53 240.66 389.00 241.00&#10;C 389.00 236.00 389.00 231.00 389.00 226.00&#10;C 398.17 227.19 410.14 223.14 417.00 229.00&#10;C 417.00 225.00 417.00 221.00 417.00 217.00 Z"/>
</g>
<g stroke-width="0.3" stroke-opacity="0.76" stroke="#CEB172" fill-opacity="0.0" fill="None"><path d="M 127.00 281.00 &#10;C 126.31 280.91 126.48 279.59 126.00 279.00&#10;C 125.60 278.51 123.52 279.39 123.00 279.00&#10;C 128.53 273.68 130.18 265.86 134.00 260.00&#10;C 133.85 259.74 130.96 258.41 130.00 258.00&#10;C 127.76 257.03 126.53 258.34 127.00 256.00&#10;C 126.85 256.00 126.33 254.99 126.00 255.00&#10;C 123.90 257.24 122.64 258.86 119.00 258.00&#10;C 118.65 257.92 118.23 257.28 118.00 257.00&#10;C 116.01 256.20 114.65 257.95 113.00 258.00&#10;C 110.95 258.93 111.91 259.00 110.00 259.00&#10;C 107.94 259.44 106.18 260.72 104.00 261.00&#10;C 103.51 261.06 102.43 260.83 102.00 261.00&#10;C 100.25 261.70 98.19 261.91 97.00 262.00&#10;C 94.47 262.61 93.19 264.70 90.00 264.00&#10;C 89.64 261.48 92.37 262.96 94.00 262.00&#10;C 96.76 261.04 99.26 259.96 102.00 259.00&#10;C 105.47 257.79 109.37 257.32 112.00 257.00&#10;C 113.05 256.87 113.76 256.08 115.00 256.00&#10;C 114.38 255.72 112.44 253.56 112.00 253.00&#10;C 109.98 252.09 107.62 254.01 106.00 252.00&#10;C 107.18 250.49 109.14 252.15 111.00 251.00&#10;C 112.24 250.90 113.07 252.74 113.00 250.00&#10;C 112.99 249.50 113.00 249.00 113.00 249.00&#10;C 112.99 247.72 112.42 247.15 112.00 246.00&#10;C 111.84 246.23 110.50 246.00 110.00 246.00&#10;C 109.50 246.00 109.00 246.00 109.00 246.00&#10;C 107.02 245.68 106.05 245.21 104.00 246.00&#10;C 104.83 244.53 106.07 242.75 108.00 243.00&#10;C 108.74 242.70 109.16 242.07 110.00 242.00&#10;C 110.59 241.95 112.21 242.90 113.00 243.00&#10;C 115.50 242.80 121.20 240.08 124.00 239.00&#10;C 124.71 238.73 124.86 238.16 126.00 238.00&#10;C 126.91 236.86 123.44 233.17 125.00 232.00&#10;C 121.40 231.38 118.58 233.62 115.00 233.00&#10;C 113.98 226.36 104.54 224.04 102.00 218.00&#10;C 83.67 224.80 62.04 225.51 48.00 241.00&#10;C 52.86 249.44 36.83 252.87 30.03 248.97 C 23.22 245.08 17.11 244.07 20.22 253.78 C 23.33 263.49 24.49 264.57 29.25 271.75 C 34.00 278.94 39.78 280.16 48.00 281.00 C 56.22 281.84 65.52 282.21 74.00 282.00 C 82.48 281.79 92.65 282.79 101.00 282.00 C 109.35 281.21 119.81 284.36 127.00 281.00&#10;M 104.00 228.00 &#10;C 106.26 230.26 109.51 232.07 111.00 235.00&#10;C 108.89 237.28 106.20 234.51 107.00 232.00&#10;C 103.72 230.92 94.02 234.32 95.00 230.00&#10;C 93.57 230.37 92.43 231.60 91.00 232.00&#10;C 92.18 235.08 92.09 238.58 92.00 242.00&#10;C 83.37 237.83 92.47 227.04 98.00 223.00&#10;C 100.64 223.16 102.62 226.02 104.00 228.00&#10;M 84.00 241.00 &#10;C 83.92 241.84 83.77 244.44 82.00 244.00&#10;C 84.02 240.51 78.33 236.70 82.00 235.00&#10;C 83.05 235.66 81.87 238.39 84.00 239.00&#10;C 83.95 237.33 84.04 235.67 84.00 234.00&#10;C 85.63 234.88 85.55 242.42 84.00 241.00&#10;M 70.00 240.00 &#10;C 70.71 242.65 70.45 245.10 73.00 247.00&#10;C 69.10 246.11 65.68 248.79 61.00 249.00&#10;C 65.43 247.05 69.40 243.65 65.00 239.00&#10;C 66.14 238.07 67.55 237.92 69.00 238.00&#10;C 70.60 237.51 72.39 237.64 74.00 237.00&#10;C 73.70 239.46 70.69 238.18 70.00 240.00&#10;M 59.00 249.00 &#10;C 52.78 253.00 51.97 245.30 54.00 242.00&#10;C 56.72 242.47 54.60 248.59 59.00 249.00&#10;M 94.00 250.00 &#10;C 92.75 250.21 90.59 251.96 89.00 250.00&#10;C 90.02 248.04 93.45 251.52 94.00 248.00&#10;C 95.49 247.70 97.00 246.80 99.00 248.00&#10;C 98.40 250.31 95.87 250.03 94.00 250.00&#10;M 76.00 254.00 &#10;C 74.69 254.30 72.78 254.74 71.00 255.00&#10;C 67.42 255.52 61.86 257.39 58.00 255.00&#10;C 62.08 252.72 66.31 255.69 70.00 253.00&#10;C 71.63 252.80 73.36 253.05 75.00 253.00&#10;C 77.30 252.93 79.09 252.05 81.00 253.00&#10;C 80.17 254.75 77.56 253.66 76.00 254.00&#10;M 98.00 255.00 &#10;C 97.46 255.15 95.41 257.23 95.00 255.00&#10;C 97.21 255.29 97.26 251.93 100.00 253.00&#10;C 100.94 252.44 103.25 250.86 104.00 253.00&#10;C 101.03 251.96 101.06 256.03 98.00 255.00&#10;M 42.00 255.00 &#10;C 36.37 257.40 28.81 255.50 23.00 254.00&#10;C 27.99 253.70 36.75 253.32 42.00 255.00&#10;M 58.00 255.00 &#10;C 53.91 257.24 47.84 255.40 43.00 256.00&#10;C 47.09 253.76 53.16 255.60 58.00 255.00&#10;M 88.00 258.00 &#10;C 85.41 258.41 79.37 259.66 78.00 260.00&#10;C 77.01 260.25 75.99 260.84 75.00 261.00&#10;C 72.04 261.47 70.03 260.58 67.00 261.00&#10;C 63.89 261.44 55.81 263.91 53.00 261.00&#10;C 47.38 261.51 42.48 260.05 37.00 260.00&#10;C 41.64 257.27 47.55 261.35 53.00 260.00&#10;C 55.08 257.85 62.93 259.02 66.00 259.00&#10;C 68.40 258.98 71.07 259.51 74.00 259.00&#10;C 75.71 258.70 77.20 258.30 79.00 258.00&#10;C 82.03 257.50 83.89 257.46 87.00 257.00&#10;C 88.21 256.82 91.90 254.39 93.00 257.00&#10;C 92.02 257.73 89.86 257.82 88.00 258.00&#10;M 36.00 258.00 &#10;C 33.35 260.57 29.19 257.99 26.00 258.00&#10;C 28.61 255.55 32.54 259.25 36.00 258.00&#10;M 36.00 263.00 &#10;C 34.13 265.03 29.82 263.12 28.00 262.00&#10;C 29.67 261.37 33.79 261.84 36.00 263.00&#10;M 127.00 263.00 &#10;C 126.50 263.50 127.40 265.40 127.00 266.00&#10;C 118.01 264.72 110.94 266.14 103.00 269.00&#10;C 102.08 269.12 99.73 269.33 98.00 269.00&#10;C 96.28 270.94 89.82 272.59 90.00 268.00&#10;C 92.44 270.02 95.43 268.53 98.00 268.00&#10;C 98.12 267.74 98.73 267.19 99.00 267.00&#10;C 102.29 264.72 110.62 264.89 115.00 264.00&#10;C 116.91 263.61 119.58 263.29 122.00 263.00&#10;C 123.76 262.79 131.87 261.52 127.00 263.00&#10;M 41.00 264.00 &#10;C 43.56 261.85 46.33 263.70 49.00 264.00&#10;C 56.40 264.83 69.15 262.70 75.00 265.00&#10;C 78.28 264.86 82.02 262.00 85.00 264.00&#10;C 82.10 263.10 80.94 266.92 78.00 266.00&#10;C 68.46 268.58 57.51 265.37 49.00 266.00&#10;C 46.57 266.18 42.61 266.67 41.00 265.00&#10;C 39.44 265.02 38.31 264.81 37.00 264.00&#10;C 37.47 262.66 40.58 262.43 41.00 264.00&#10;M 48.00 270.00 &#10;C 50.54 270.22 53.77 268.16 57.00 270.00&#10;C 57.11 270.06 58.98 271.18 59.00 271.00&#10;C 64.10 270.96 71.15 268.94 77.00 270.00&#10;C 76.92 271.26 74.94 270.56 75.00 272.00&#10;C 80.93 271.86 83.61 268.11 89.00 270.00&#10;C 82.99 274.10 73.65 272.56 66.00 273.00&#10;C 63.79 272.94 61.51 273.58 60.00 272.00&#10;C 57.71 271.75 55.28 272.36 53.00 272.00&#10;C 51.77 271.81 51.17 271.31 50.00 271.00&#10;C 43.76 269.37 37.07 269.36 31.00 267.00&#10;C 35.77 266.05 42.65 268.66 48.00 270.00&#10;M 123.00 272.00 &#10;C 123.48 274.66 119.47 275.32 120.00 278.00&#10;C 92.37 275.26 60.38 284.17 36.00 272.00&#10;C 64.05 281.64 94.06 274.78 123.00 272.00 Z"/>
</g>
<g stroke-width="0.3" stroke-opacity="0.86" stroke="#FCFCFC" fill-opacity="0.0" fill="None"><path d="M 203.00 224.00 &#10;C 191.90 217.41 174.67 215.43 166.25 227.25 C 157.84 239.08 158.63 256.41 168.25 266.75 C 177.86 277.09 196.46 274.18 205.00 264.00&#10;C 203.18 258.40 203.28 251.09 206.00 246.00&#10;C 198.13 245.16 188.27 247.98 182.00 244.00&#10;C 182.00 247.67 182.00 251.33 182.00 255.00&#10;C 185.33 252.22 190.31 253.05 195.00 253.00&#10;C 199.86 267.18 180.71 269.53 173.75 261.25 C 166.79 252.96 167.80 239.60 173.08 231.08 C 178.36 222.57 194.96 223.65 196.00 234.00&#10;C 199.95 232.95 201.53 227.47 203.00 224.00 Z"/>
</g>
<g stroke-width="0.3" stroke-opacity="0.89" stroke="#FCFCFC" fill-opacity="0.0" fill="None"><path d="M 242.00 218.00 &#10;C 210.41 215.18 205.52 269.58 237.00 273.00 C 268.48 276.42 272.69 220.74 242.00 218.00&#10;M 240.00 225.00 &#10;C 260.28 225.64 260.22 266.72 239.00 266.00 C 217.77 265.27 218.73 224.33 240.00 225.00 Z"/>
</g>
<g stroke-width="0.3" stroke-opacity="0.87" stroke="#FDFDFD" fill-opacity="0.0" fill="None"><path d="M 284.00 250.00 &#10;C 297.39 252.63 316.93 246.47 311.97 230.03 C 307.02 213.58 286.42 220.40 273.00 219.00&#10;C 276.30 234.42 276.30 256.58 273.00 272.00&#10;C 277.33 272.00 281.67 272.00 286.00 272.00&#10;C 282.13 266.26 284.77 257.30 284.00 250.00&#10;M 284.00 243.00 &#10;C 284.00 237.33 284.00 231.67 284.00 226.00&#10;C 291.38 226.38 303.72 223.52 304.00 234.00 C 304.27 244.49 291.69 243.19 284.00 243.00 Z"/>
</g>
<g stroke-width="0.3" stroke-opacity="0.92" stroke="#FDFDFD" fill-opacity="0.0" fill="None"><path d="M 336.00 219.00 &#10;C 332.00 219.00 328.00 219.00 324.00 219.00&#10;C 327.29 235.26 327.29 255.74 324.00 272.00&#10;C 328.00 272.00 332.00 272.00 336.00 272.00&#10;C 332.06 265.96 334.81 256.61 334.00 249.00&#10;C 341.33 249.00 348.67 249.00 356.00 249.00&#10;C 355.20 256.55 357.92 266.04 354.00 272.00&#10;C 358.00 272.00 362.00 272.00 366.00 272.00&#10;C 362.66 255.70 362.78 235.47 366.00 219.00&#10;C 362.00 219.00 358.00 219.00 354.00 219.00&#10;C 357.70 225.69 355.35 234.32 356.00 242.00&#10;C 348.67 242.00 341.33 242.00 334.00 242.00&#10;C 334.66 234.35 332.29 225.66 336.00 219.00 Z"/>
</g>
<g stroke-width="0.3" stroke-opacity="0.89" stroke="#FCFDFD" fill-opacity="0.0" fill="None"><path d="M 460.00 249.00 &#10;C 471.04 247.02 475.14 230.51 465.75 223.25 C 456.35 216.00 440.53 220.03 429.00 219.00&#10;C 433.99 225.46 431.96 237.30 432.00 246.00 C 432.04 254.70 433.95 266.40 429.00 272.00&#10;C 433.67 272.00 438.33 272.00 443.00 272.00&#10;C 437.73 266.83 440.79 257.39 440.00 250.00&#10;C 444.00 250.00 448.00 250.00 452.00 250.00&#10;C 453.35 257.47 463.71 265.00 460.00 272.00&#10;C 464.33 272.00 468.67 272.00 473.00 272.00&#10;C 468.24 265.32 464.06 256.80 460.00 249.00&#10;M 440.00 243.00 &#10;C 440.00 237.33 440.00 231.67 440.00 226.00&#10;C 447.87 227.12 461.20 222.25 461.99 234.01 C 462.79 245.77 448.07 242.99 440.00 243.00 Z"/>
</g>
<g stroke-width="0.3" stroke-opacity="0.00" stroke="#000000" fill-opacity="0.0" fill="None"><path d="M 95.00 230.00 &#10;C 98.07 229.20 103.16 231.89 104.00 228.00&#10;C 102.62 226.02 100.64 223.16 98.00 223.00&#10;C 92.47 227.04 83.37 237.83 92.00 242.00&#10;C 92.09 238.58 92.18 235.08 91.00 232.00&#10;C 92.43 231.60 93.57 230.37 95.00 230.00 Z"/>
</g>
<g stroke-width="0.3" stroke-opacity="0.70" stroke="#AD9665" fill-opacity="0.0" fill="None"><path d="M 125.00 232.00 &#10;C 123.44 233.17 126.91 236.86 126.00 238.00&#10;C 127.01 237.86 129.02 237.72 130.00 238.00&#10;C 131.31 238.37 132.19 239.64 132.00 241.00&#10;C 129.91 239.57 128.26 243.47 125.00 242.00&#10;C 122.53 242.95 119.54 242.87 117.00 243.00&#10;C 115.88 243.28 112.60 244.65 112.00 245.00&#10;C 112.24 245.32 112.00 246.00 112.00 246.00&#10;C 112.42 247.15 112.99 247.72 113.00 249.00&#10;C 115.76 249.98 117.20 248.70 120.00 248.00&#10;C 119.55 250.28 114.22 252.96 113.00 250.00&#10;C 113.07 252.74 112.24 250.90 111.00 251.00&#10;C 111.49 251.22 111.73 252.65 112.00 253.00&#10;C 112.44 253.56 114.38 255.72 115.00 256.00&#10;C 116.56 255.90 117.07 255.90 118.00 257.00&#10;C 118.23 257.28 118.65 257.92 119.00 258.00&#10;C 121.12 257.55 123.39 255.08 126.00 255.00&#10;C 126.33 254.99 126.85 256.00 127.00 256.00&#10;C 129.94 255.91 127.68 256.19 130.00 258.00&#10;C 130.96 258.41 133.85 259.74 134.00 260.00&#10;C 138.29 267.45 127.48 272.80 126.00 279.00&#10;C 126.48 279.59 126.31 280.91 127.00 281.00&#10;C 134.64 275.83 135.24 270.26 139.22 262.22 C 143.21 254.18 141.97 246.28 145.00 237.00 C 148.03 227.72 134.88 217.46 133.00 231.00&#10;C 130.18 230.25 127.48 231.61 125.00 232.00&#10;M 142.00 228.00 &#10;C 142.26 239.17 139.64 249.62 137.00 260.00&#10;C 134.12 258.21 133.83 250.15 136.00 245.00 C 138.17 239.84 133.44 226.65 142.00 228.00&#10;M 132.00 247.00 &#10;C 132.63 252.74 125.98 248.32 123.00 249.00&#10;C 124.95 246.25 128.94 247.14 132.00 247.00 Z"/>
</g>
<g stroke-width="0.3" stroke-opacity="0.00" stroke="#000000" fill-opacity="0.0" fill="None"><path d="M 240.00 225.00 &#10;C 218.73 224.33 217.77 265.27 239.00 266.00 C 260.22 266.72 260.28 225.64 240.00 225.00 Z"/>
</g>
<g stroke-width="0.3" stroke-opacity="0.00" stroke="#000000" fill-opacity="0.0" fill="None"><path d="M 284.00 243.00 &#10;C 291.69 243.19 304.27 244.49 304.00 234.00 C 303.72 223.52 291.38 226.38 284.00 226.00&#10;C 284.00 231.67 284.00 237.33 284.00 243.00 Z"/>
</g>
<g stroke-width="0.3" stroke-opacity="0.00" stroke="#000000" fill-opacity="0.0" fill="None"><path d="M 440.00 243.00 &#10;C 448.07 242.99 462.79 245.77 461.99 234.01 C 461.20 222.25 447.87 227.12 440.00 226.00&#10;C 440.00 231.67 440.00 237.33 440.00 243.00 Z"/>
</g>
<g stroke-width="0.3" stroke-opacity="0.17" stroke="#A48B63" fill-opacity="0.0" fill="None"><path d="M 95.00 230.00 &#10;C 94.02 234.32 103.72 230.92 107.00 232.00&#10;C 106.20 234.51 108.89 237.28 111.00 235.00&#10;C 109.51 232.07 106.26 230.26 104.00 228.00&#10;C 103.16 231.89 98.07 229.20 95.00 230.00 Z"/>
</g>
<g stroke-width="0.3" stroke-opacity="0.00" stroke="#000000" fill-opacity="0.0" fill="None"><path d="M 142.00 228.00 &#10;C 133.44 226.65 138.17 239.84 136.00 245.00 C 133.83 250.15 134.12 258.21 137.00 260.00&#10;C 139.64 249.62 142.26 239.17 142.00 228.00 Z"/>
</g>
<g stroke-width="0.3" stroke-opacity="0.00" stroke="#000000" fill-opacity="0.0" fill="None"><path d="M 84.00 239.00 &#10;C 84.02 239.50 84.05 240.50 84.00 241.00&#10;C 85.55 242.42 85.63 234.88 84.00 234.00&#10;C 84.04 235.67 83.95 237.33 84.00 239.00 Z"/>
</g>
<g stroke-width="0.3" stroke-opacity="0.01" stroke="#865452" fill-opacity="0.0" fill="None"><path d="M 84.00 241.00 &#10;C 84.05 240.50 84.02 239.50 84.00 239.00&#10;C 81.87 238.39 83.05 235.66 82.00 235.00&#10;C 78.33 236.70 84.02 240.51 82.00 244.00&#10;C 83.77 244.44 83.92 241.84 84.00 241.00 Z"/>
</g>
<g stroke-width="0.3" stroke-opacity="0.00" stroke="#030303" fill-opacity="0.0" fill="None"><path d="M 69.00 238.00 &#10;C 68.02 237.48 70.19 240.71 70.00 240.00&#10;C 70.69 238.18 73.70 239.46 74.00 237.00&#10;C 72.39 237.64 70.60 237.51 69.00 238.00 Z"/>
</g>
<g stroke-width="0.3" stroke-opacity="0.11" stroke="#918048" fill-opacity="0.0" fill="None"><path d="M 70.00 240.00 &#10;C 70.19 240.71 68.02 237.48 69.00 238.00&#10;C 67.55 237.92 66.14 238.07 65.00 239.00&#10;C 69.40 243.65 65.43 247.05 61.00 249.00&#10;C 65.68 248.79 69.10 246.11 73.00 247.00&#10;C 70.45 245.10 70.71 242.65 70.00 240.00 Z"/>
</g>
<g stroke-width="0.3" stroke-opacity="0.05" stroke="#AEAC52" fill-opacity="0.0" fill="None"><path d="M 124.00 239.00 &#10;C 123.92 239.42 124.91 240.50 125.00 241.00&#10;C 126.58 240.02 128.53 239.38 130.00 238.00&#10;C 129.02 237.72 127.01 237.86 126.00 238.00&#10;C 124.86 238.16 124.71 238.73 124.00 239.00 Z"/>
</g>
<g stroke-width="0.3" stroke-opacity="0.01" stroke="#7B7C73" fill-opacity="0.0" fill="None"><path d="M 125.00 241.00 &#10;C 125.09 241.48 125.00 242.00 125.00 242.00&#10;C 128.26 243.47 129.91 239.57 132.00 241.00&#10;C 132.19 239.64 131.31 238.37 130.00 238.00&#10;C 128.53 239.38 126.58 240.02 125.00 241.00 Z"/>
</g>
<g stroke-width="0.3" stroke-opacity="0.00" stroke="#000000" fill-opacity="0.0" fill="None"><path d="M 113.00 243.00 &#10;C 114.25 243.16 115.74 243.06 117.00 243.00&#10;C 119.54 242.87 122.53 242.95 125.00 242.00&#10;C 125.00 242.00 125.09 241.48 125.00 241.00&#10;C 124.91 240.50 123.92 239.42 124.00 239.00&#10;C 121.20 240.08 115.50 242.80 113.00 243.00 Z"/>
</g>
<g stroke-width="0.3" stroke-opacity="0.05" stroke="#63572E" fill-opacity="0.0" fill="None"><path d="M 59.00 249.00 &#10;C 54.60 248.59 56.72 242.47 54.00 242.00&#10;C 51.97 245.30 52.78 253.00 59.00 249.00 Z"/>
</g>
<g stroke-width="0.3" stroke-opacity="0.13" stroke="#8B7760" fill-opacity="0.0" fill="None"><path d="M 108.00 243.00 &#10;C 107.80 243.40 108.00 244.00 108.00 244.00&#10;C 108.34 244.35 110.44 245.11 110.00 246.00&#10;C 110.50 246.00 111.84 246.23 112.00 246.00&#10;C 112.00 246.00 112.24 245.32 112.00 245.00&#10;C 111.91 244.89 109.98 242.00 110.00 242.00&#10;C 109.16 242.07 108.74 242.70 108.00 243.00 Z"/>
</g>
<g stroke-width="0.3" stroke-opacity="0.03" stroke="#E2DF50" fill-opacity="0.0" fill="None"><path d="M 112.00 245.00 &#10;C 112.60 244.65 115.88 243.28 117.00 243.00&#10;C 115.74 243.06 114.25 243.16 113.00 243.00&#10;C 112.21 242.90 110.59 241.95 110.00 242.00&#10;C 109.98 242.00 111.91 244.89 112.00 245.00 Z"/>
</g>
<g stroke-width="0.3" stroke-opacity="0.00" stroke="#535445" fill-opacity="0.0" fill="None"><path d="M 109.00 246.00 &#10;C 108.65 245.82 108.07 244.37 108.00 244.00&#10;C 108.00 244.00 107.80 243.40 108.00 243.00&#10;C 106.07 242.75 104.83 244.53 104.00 246.00&#10;C 106.05 245.21 107.02 245.68 109.00 246.00 Z"/>
</g>
<g stroke-width="0.3" stroke-opacity="0.07" stroke="#DBCF56" fill-opacity="0.0" fill="None"><path d="M 109.00 246.00 &#10;C 109.00 246.00 109.50 246.00 110.00 246.00&#10;C 110.44 245.11 108.34 244.35 108.00 244.00&#10;C 108.07 244.37 108.65 245.82 109.00 246.00 Z"/>
</g>
<g stroke-width="0.3" stroke-opacity="0.07" stroke="#C6996B" fill-opacity="0.0" fill="None"><path d="M 94.00 248.00 &#10;C 94.37 247.48 94.45 249.52 94.00 250.00&#10;C 95.87 250.03 98.40 250.31 99.00 248.00&#10;C 97.00 246.80 95.49 247.70 94.00 248.00 Z"/>
</g>
<g stroke-width="0.3" stroke-opacity="0.07" stroke="#A99F56" fill-opacity="0.0" fill="None"><path d="M 132.00 247.00 &#10;C 128.94 247.14 124.95 246.25 123.00 249.00&#10;C 125.98 248.32 132.63 252.74 132.00 247.00 Z"/>
</g>
<g stroke-width="0.3" stroke-opacity="0.01" stroke="#29261A" fill-opacity="0.0" fill="None"><path d="M 94.00 250.00 &#10;C 94.45 249.52 94.37 247.48 94.00 248.00&#10;C 93.45 251.52 90.02 248.04 89.00 250.00&#10;C 90.59 251.96 92.75 250.21 94.00 250.00 Z"/>
</g>
<g stroke-width="0.3" stroke-opacity="0.03" stroke="#CCBA65" fill-opacity="0.0" fill="None"><path d="M 113.00 249.00 &#10;C 113.00 249.00 112.99 249.50 113.00 250.00&#10;C 114.22 252.96 119.55 250.28 120.00 248.00&#10;C 117.20 248.70 115.76 249.98 113.00 249.00 Z"/>
</g>
<g stroke-width="0.3" stroke-opacity="0.06" stroke="#D0786A" fill-opacity="0.0" fill="None"><path d="M 112.00 253.00 &#10;C 111.73 252.65 111.49 251.22 111.00 251.00&#10;C 109.14 252.15 107.18 250.49 106.00 252.00&#10;C 107.62 254.01 109.98 252.09 112.00 253.00 Z"/>
</g>
<g stroke-width="0.3" stroke-opacity="0.01" stroke="#DBDC62" fill-opacity="0.0" fill="None"><path d="M 75.00 253.00 &#10;C 75.26 253.12 75.65 253.93 76.00 254.00&#10;C 77.56 253.66 80.17 254.75 81.00 253.00&#10;C 79.09 252.05 77.30 252.93 75.00 253.00 Z"/>
</g>
<g stroke-width="0.3" stroke-opacity="0.07" stroke="#DECD57" fill-opacity="0.0" fill="None"><path d="M 100.00 253.00 &#10;C 99.37 253.38 98.60 254.62 98.00 255.00&#10;C 101.06 256.03 101.03 251.96 104.00 253.00&#10;C 103.25 250.86 100.94 252.44 100.00 253.00 Z"/>
</g>
<g stroke-width="0.3" stroke-opacity="0.34" stroke="#A88D52" fill-opacity="0.0" fill="None"><path d="M 42.00 255.00 &#10;C 36.75 253.32 27.99 253.70 23.00 254.00&#10;C 28.81 255.50 36.37 257.40 42.00 255.00 Z"/>
</g>
<g stroke-width="0.3" stroke-opacity="0.12" stroke="#CBB46E" fill-opacity="0.0" fill="None"><path d="M 71.00 255.00 &#10;C 70.72 254.84 70.13 253.04 70.00 253.00&#10;C 66.31 255.69 62.08 252.72 58.00 255.00&#10;C 61.86 257.39 67.42 255.52 71.00 255.00 Z"/>
</g>
<g stroke-width="0.3" stroke-opacity="0.00" stroke="#482A1B" fill-opacity="0.0" fill="None"><path d="M 71.00 255.00 &#10;C 72.78 254.74 74.69 254.30 76.00 254.00&#10;C 75.65 253.93 75.26 253.12 75.00 253.00&#10;C 73.36 253.05 71.63 252.80 70.00 253.00&#10;C 70.13 253.04 70.72 254.84 71.00 255.00 Z"/>
</g>
<g stroke-width="0.3" stroke-opacity="0.01" stroke="#744137" fill-opacity="0.0" fill="None"><path d="M 98.00 255.00 &#10;C 98.60 254.62 99.37 253.38 100.00 253.00&#10;C 97.26 251.93 97.21 255.29 95.00 255.00&#10;C 95.41 257.23 97.46 255.15 98.00 255.00 Z"/>
</g>
<g stroke-width="0.3" stroke-opacity="0.00" stroke="#000000" fill-opacity="0.0" fill="None"><path d="M 58.00 255.00 &#10;C 53.16 255.60 47.09 253.76 43.00 256.00&#10;C 47.84 255.40 53.91 257.24 58.00 255.00 Z"/>
</g>
<g stroke-width="0.3" stroke-opacity="0.00" stroke="#030300" fill-opacity="0.0" fill="None"><path d="M 119.00 258.00 &#10;C 122.64 258.86 123.90 257.24 126.00 255.00&#10;C 123.39 255.08 121.12 257.55 119.00 258.00 Z"/>
</g>
<g stroke-width="0.3" stroke-opacity="0.09" stroke="#B6B054" fill-opacity="0.0" fill="None"><path d="M 127.00 256.00 &#10;C 126.53 258.34 127.76 257.03 130.00 258.00&#10;C 127.68 256.19 129.94 255.91 127.00 256.00 Z"/>
</g>
<g stroke-width="0.3" stroke-opacity="0.06" stroke="#6D582A" fill-opacity="0.0" fill="None"><path d="M 87.00 257.00 &#10;C 87.34 257.02 87.80 257.97 88.00 258.00&#10;C 89.86 257.82 92.02 257.73 93.00 257.00&#10;C 91.90 254.39 88.21 256.82 87.00 257.00 Z"/>
</g>
<g stroke-width="0.3" stroke-opacity="0.14" stroke="#B7A553" fill-opacity="0.0" fill="None"><path d="M 102.00 259.00 &#10;C 101.80 259.10 101.75 260.75 102.00 261.00&#10;C 102.43 260.83 103.51 261.06 104.00 261.00&#10;C 107.07 259.24 107.05 259.01 110.00 259.00&#10;C 111.91 259.00 110.95 258.93 113.00 258.00&#10;C 112.67 258.01 112.26 257.24 112.00 257.00&#10;C 109.37 257.32 105.47 257.79 102.00 259.00 Z"/>
</g>
<g stroke-width="0.3" stroke-opacity="0.00" stroke="#020202" fill-opacity="0.0" fill="None"><path d="M 112.00 257.00 &#10;C 112.26 257.24 112.67 258.01 113.00 258.00&#10;C 114.65 257.95 116.01 256.20 118.00 257.00&#10;C 117.07 255.90 116.56 255.90 115.00 256.00&#10;C 113.76 256.08 113.05 256.87 112.00 257.00 Z"/>
</g>
<g stroke-width="0.3" stroke-opacity="0.00" stroke="#050402" fill-opacity="0.0" fill="None"><path d="M 36.00 258.00 &#10;C 32.54 259.25 28.61 255.55 26.00 258.00&#10;C 29.19 257.99 33.35 260.57 36.00 258.00 Z"/>
</g>
<g stroke-width="0.3" stroke-opacity="0.08" stroke="#F1A86E" fill-opacity="0.0" fill="None"><path d="M 79.00 258.00 &#10;C 78.49 258.29 78.37 259.70 78.00 260.00&#10;C 79.37 259.66 85.41 258.41 88.00 258.00&#10;C 87.80 257.97 87.34 257.02 87.00 257.00&#10;C 83.89 257.46 82.03 257.50 79.00 258.00 Z"/>
</g>
<g stroke-width="0.3" stroke-opacity="0.04" stroke="#D7C46B" fill-opacity="0.0" fill="None"><path d="M 74.00 259.00 &#10;C 74.38 259.18 74.76 260.90 75.00 261.00&#10;C 75.99 260.84 77.01 260.25 78.00 260.00&#10;C 78.37 259.70 78.49 258.29 79.00 258.00&#10;C 77.20 258.30 75.71 258.70 74.00 259.00 Z"/>
</g>
<g stroke-width="0.3" stroke-opacity="0.00" stroke="#632D2D" fill-opacity="0.0" fill="None"><path d="M 104.00 261.00 &#10;C 106.18 260.72 107.94 259.44 110.00 259.00&#10;C 107.05 259.01 107.07 259.24 104.00 261.00 Z"/>
</g>
<g stroke-width="0.3" stroke-opacity="0.00" stroke="#000000" fill-opacity="0.0" fill="None"><path d="M 53.00 261.00 &#10;C 52.75 260.74 53.00 260.00 53.00 260.00&#10;C 47.55 261.35 41.64 257.27 37.00 260.00&#10;C 42.48 260.05 47.38 261.51 53.00 261.00 Z"/>
</g>
<g stroke-width="0.3" stroke-opacity="0.24" stroke="#C0A65F" fill-opacity="0.0" fill="None"><path d="M 53.00 260.00 &#10;C 53.00 260.00 52.75 260.74 53.00 261.00&#10;C 55.81 263.91 63.89 261.44 67.00 261.00&#10;C 65.74 260.60 66.66 259.34 66.00 259.00&#10;C 62.93 259.02 55.08 257.85 53.00 260.00 Z"/>
</g>
<g stroke-width="0.3" stroke-opacity="0.00" stroke="#50321D" fill-opacity="0.0" fill="None"><path d="M 67.00 261.00 &#10;C 70.03 260.58 72.04 261.47 75.00 261.00&#10;C 74.76 260.90 74.38 259.18 74.00 259.00&#10;C 71.07 259.51 68.40 258.98 66.00 259.00&#10;C 66.66 259.34 65.74 260.60 67.00 261.00 Z"/>
</g>
<g stroke-width="0.3" stroke-opacity="0.03" stroke="#E2D150" fill-opacity="0.0" fill="None"><path d="M 94.00 262.00 &#10;C 94.28 261.95 96.74 262.02 97.00 262.00&#10;C 98.19 261.91 100.25 261.70 102.00 261.00&#10;C 101.75 260.75 101.80 259.10 102.00 259.00&#10;C 99.26 259.96 96.76 261.04 94.00 262.00 Z"/>
</g>
<g stroke-width="0.3" stroke-opacity="0.00" stroke="#000000" fill-opacity="0.0" fill="None"><path d="M 126.00 279.00 &#10;C 127.48 272.80 138.29 267.45 134.00 260.00&#10;C 130.18 265.86 128.53 273.68 123.00 279.00&#10;C 123.52 279.39 125.60 278.51 126.00 279.00 Z"/>
</g>
<g stroke-width="0.3" stroke-opacity="0.00" stroke="#000000" fill-opacity="0.0" fill="None"><path d="M 36.00 263.00 &#10;C 33.79 261.84 29.67 261.37 28.00 262.00&#10;C 29.82 263.12 34.13 265.03 36.00 263.00 Z"/>
</g>
<g stroke-width="0.3" stroke-opacity="0.04" stroke="#4F2E20" fill-opacity="0.0" fill="None"><path d="M 94.00 262.00 &#10;C 92.37 262.96 89.64 261.48 90.00 264.00&#10;C 93.19 264.70 94.47 262.61 97.00 262.00&#10;C 96.74 262.02 94.28 261.95 94.00 262.00 Z"/>
</g>
<g stroke-width="0.3" stroke-opacity="0.33" stroke="#A99765" fill-opacity="0.0" fill="None"><path d="M 122.00 263.00 &#10;C 122.24 263.07 122.65 263.90 123.00 264.00&#10;C 124.59 263.73 125.50 263.46 127.00 263.00&#10;C 131.87 261.52 123.76 262.79 122.00 263.00 Z"/>
</g>
<g stroke-width="0.3" stroke-opacity="0.00" stroke="#000000" fill-opacity="0.0" fill="None"><path d="M 41.00 265.00 &#10;C 40.75 264.74 41.00 264.00 41.00 264.00&#10;C 40.58 262.43 37.47 262.66 37.00 264.00&#10;C 38.31 264.81 39.44 265.02 41.00 265.00 Z"/>
</g>
<g stroke-width="0.3" stroke-opacity="0.14" stroke="#7C6C47" fill-opacity="0.0" fill="None"><path d="M 41.00 264.00 &#10;C 41.00 264.00 40.75 264.74 41.00 265.00&#10;C 42.61 266.67 46.57 266.18 49.00 266.00&#10;C 49.19 265.92 49.25 264.25 49.00 264.00&#10;C 46.33 263.70 43.56 261.85 41.00 264.00 Z"/>
</g>
<g stroke-width="0.3" stroke-opacity="0.01" stroke="#8A4643" fill-opacity="0.0" fill="None"><path d="M 75.00 265.00 &#10;C 76.03 265.41 76.42 266.01 78.00 266.00&#10;C 80.94 266.92 82.10 263.10 85.00 264.00&#10;C 82.02 262.00 78.28 264.86 75.00 265.00 Z"/>
</g>
<g stroke-width="0.3" stroke-opacity="0.00" stroke="#FEFF00" fill-opacity="0.0" fill="None"><path d="M 115.00 264.00 &#10;C 117.97 263.92 120.95 264.35 123.00 264.00&#10;C 122.65 263.90 122.24 263.07 122.00 263.00&#10;C 119.58 263.29 116.91 263.61 115.00 264.00 Z"/>
</g>
<g stroke-width="0.3" stroke-opacity="0.00" stroke="#010101" fill-opacity="0.0" fill="None"><path d="M 123.00 264.00 &#10;C 120.95 264.35 117.97 263.92 115.00 264.00&#10;C 110.62 264.89 102.29 264.72 99.00 267.00&#10;C 100.83 266.48 101.46 268.73 103.00 269.00&#10;C 110.94 266.14 118.01 264.72 127.00 266.00&#10;C 127.40 265.40 126.50 263.50 127.00 263.00&#10;C 125.50 263.46 124.59 263.73 123.00 264.00 Z"/>
</g>
<g stroke-width="0.3" stroke-opacity="0.06" stroke="#BEAB5E" fill-opacity="0.0" fill="None"><path d="M 49.00 266.00 &#10;C 57.51 265.37 68.46 268.58 78.00 266.00&#10;C 76.42 266.01 76.03 265.41 75.00 265.00&#10;C 69.15 262.70 56.40 264.83 49.00 264.00&#10;C 49.25 264.25 49.19 265.92 49.00 266.00 Z"/>
</g>
<g stroke-width="0.3" stroke-opacity="0.02" stroke="#010100" fill-opacity="0.0" fill="None"><path d="M 50.00 271.00 &#10;C 49.20 270.53 49.10 270.35 48.00 270.00&#10;C 42.65 268.66 35.77 266.05 31.00 267.00&#10;C 37.07 269.36 43.76 269.37 50.00 271.00 Z"/>
</g>
<g stroke-width="0.3" stroke-opacity="0.09" stroke="#FBE449" fill-opacity="0.0" fill="None"><path d="M 98.00 268.00 &#10;C 97.81 268.41 98.00 269.00 98.00 269.00&#10;C 99.73 269.33 102.08 269.12 103.00 269.00&#10;C 101.46 268.73 100.83 266.48 99.00 267.00&#10;C 98.73 267.19 98.12 267.74 98.00 268.00 Z"/>
</g>
<g stroke-width="0.3" stroke-opacity="0.00" stroke="#080401" fill-opacity="0.0" fill="None"><path d="M 98.00 269.00 &#10;C 98.00 269.00 97.81 268.41 98.00 268.00&#10;C 95.43 268.53 92.44 270.02 90.00 268.00&#10;C 89.82 272.59 96.28 270.94 98.00 269.00 Z"/>
</g>
<g stroke-width="0.3" stroke-opacity="0.15" stroke="#A98E63" fill-opacity="0.0" fill="None"><path d="M 48.00 270.00 &#10;C 49.10 270.35 49.20 270.53 50.00 271.00&#10;C 51.17 271.31 51.77 271.81 53.00 272.00&#10;C 53.39 272.00 56.72 269.98 57.00 270.00&#10;C 53.77 268.16 50.54 270.22 48.00 270.00 Z"/>
</g>
<g stroke-width="0.3" stroke-opacity="0.00" stroke="#000000" fill-opacity="0.0" fill="None"><path d="M 75.00 272.00 &#10;C 74.50 272.01 74.00 272.00 74.00 272.00&#10;C 71.37 272.00 68.62 271.76 66.00 272.00&#10;C 65.75 272.26 66.00 273.00 66.00 273.00&#10;C 73.65 272.56 82.99 274.10 89.00 270.00&#10;C 83.61 268.11 80.93 271.86 75.00 272.00 Z"/>
</g>
<g stroke-width="0.3" stroke-opacity="0.00" stroke="#000000" fill-opacity="0.0" fill="None"><path d="M 53.00 272.00 &#10;C 55.28 272.36 57.71 271.75 60.00 272.00&#10;C 59.75 271.74 58.98 271.12 59.00 271.00&#10;C 58.98 271.18 57.11 270.06 57.00 270.00&#10;C 56.72 269.98 53.39 272.00 53.00 272.00 Z"/>
</g>
<g stroke-width="0.3" stroke-opacity="0.05" stroke="#C49D68" fill-opacity="0.0" fill="None"><path d="M 59.00 271.00 &#10;C 58.98 271.12 59.75 271.74 60.00 272.00&#10;C 61.51 273.58 63.79 272.94 66.00 273.00&#10;C 66.00 273.00 65.75 272.26 66.00 272.00&#10;C 67.76 270.18 72.22 270.68 74.00 272.00&#10;C 74.00 272.00 74.50 272.01 75.00 272.00&#10;C 74.94 270.56 76.92 271.26 77.00 270.00&#10;C 71.15 268.94 64.10 270.96 59.00 271.00 Z"/>
</g>
<g stroke-width="0.3" stroke-opacity="0.01" stroke="#A9AA55" fill-opacity="0.0" fill="None"><path d="M 66.00 272.00 &#10;C 68.62 271.76 71.37 272.00 74.00 272.00&#10;C 72.22 270.68 67.76 270.18 66.00 272.00 Z"/>
</g>
<g stroke-width="0.3" stroke-opacity="0.00" stroke="#000000" fill-opacity="0.0" fill="None"><path d="M 123.00 272.00 &#10;C 94.06 274.78 64.05 281.64 36.00 272.00&#10;C 60.38 284.17 92.37 275.26 120.00 278.00&#10;C 119.47 275.32 123.48 274.66 123.00 272.00 Z"/>
</g>
<g stroke="None" fill-opacity="0.00" fill="#000000">
<path d="M 0.00 500.00 &#10;L 500.00 500.00&#10;L 500.00 0.00&#10;L 0.00 0.00&#10;L 0.00 500.00&#10;M 417.00 217.00 &#10;C 417.00 221.00 417.00 225.00 417.00 229.00&#10;C 410.14 223.14 398.17 227.19 389.00 226.00&#10;C 389.00 231.00 389.00 236.00 389.00 241.00&#10;C 396.53 240.66 404.92 242.24 411.00 239.00&#10;C 411.00 243.00 411.00 247.00 411.00 251.00&#10;C 405.19 247.06 396.66 247.96 389.00 248.00&#10;C 389.00 253.67 389.00 259.33 389.00 265.00&#10;C 398.60 264.11 409.42 267.04 418.00 263.00&#10;C 418.00 266.67 418.00 270.33 418.00 274.00&#10;C 405.89 270.13 391.96 272.77 379.00 272.00&#10;C 382.29 255.74 382.29 235.26 379.00 219.00&#10;C 391.54 217.93 405.51 221.31 417.00 217.00&#10;M 125.00 232.00 &#10;C 127.48 231.61 130.18 230.25 133.00 231.00&#10;C 134.88 217.46 148.03 227.72 145.00 237.00 C 141.97 246.28 143.21 254.18 139.22 262.22 C 135.24 270.26 134.64 275.83 127.00 281.00&#10;C 119.81 284.36 109.35 281.21 101.00 282.00 C 92.65 282.79 82.48 281.79 74.00 282.00 C 65.52 282.21 56.22 281.84 48.00 281.00 C 39.78 280.16 34.00 278.94 29.25 271.75 C 24.49 264.57 23.33 263.49 20.22 253.78 C 17.11 244.07 23.22 245.08 30.03 248.97 C 36.83 252.87 52.86 249.44 48.00 241.00&#10;C 62.04 225.51 83.67 224.80 102.00 218.00&#10;C 104.54 224.04 113.98 226.36 115.00 233.00&#10;C 118.58 233.62 121.40 231.38 125.00 232.00&#10;M 203.00 224.00 &#10;C 201.53 227.47 199.95 232.95 196.00 234.00&#10;C 194.96 223.65 178.36 222.57 173.08 231.08 C 167.80 239.60 166.79 252.96 173.75 261.25 C 180.71 269.53 199.86 267.18 195.00 253.00&#10;C 190.31 253.05 185.33 252.22 182.00 255.00&#10;C 182.00 251.33 182.00 247.67 182.00 244.00&#10;C 188.27 247.98 198.13 245.16 206.00 246.00&#10;C 203.28 251.09 203.18 258.40 205.00 264.00&#10;C 196.46 274.18 177.86 277.09 168.25 266.75 C 158.63 256.41 157.84 239.08 166.25 227.25 C 174.67 215.43 191.90 217.41 203.00 224.00&#10;M 242.00 218.00 &#10;C 272.69 220.74 268.48 276.42 237.00 273.00 C 205.52 269.58 210.41 215.18 242.00 218.00&#10;M 284.00 250.00 &#10;C 284.77 257.30 282.13 266.26 286.00 272.00&#10;C 281.67 272.00 277.33 272.00 273.00 272.00&#10;C 276.30 256.58 276.30 234.42 273.00 219.00&#10;C 286.42 220.40 307.02 213.58 311.97 230.03 C 316.93 246.47 297.39 252.63 284.00 250.00&#10;M 336.00 219.00 &#10;C 332.29 225.66 334.66 234.35 334.00 242.00&#10;C 341.33 242.00 348.67 242.00 356.00 242.00&#10;C 355.35 234.32 357.70 225.69 354.00 219.00&#10;C 358.00 219.00 362.00 219.00 366.00 219.00&#10;C 362.78 235.47 362.66 255.70 366.00 272.00&#10;C 362.00 272.00 358.00 272.00 354.00 272.00&#10;C 357.92 266.04 355.20 256.55 356.00 249.00&#10;C 348.67 249.00 341.33 249.00 334.00 249.00&#10;C 334.81 256.61 332.06 265.96 336.00 272.00&#10;C 332.00 272.00 328.00 272.00 324.00 272.00&#10;C 327.29 255.74 327.29 235.26 324.00 219.00&#10;C 328.00 219.00 332.00 219.00 336.00 219.00&#10;M 460.00 249.00 &#10;C 464.06 256.80 468.24 265.32 473.00 272.00&#10;C 468.67 272.00 464.33 272.00 460.00 272.00&#10;C 463.71 265.00 453.35 257.47 452.00 250.00&#10;C 448.00 250.00 444.00 250.00 440.00 250.00&#10;C 440.79 257.39 437.73 266.83 443.00 272.00&#10;C 438.33 272.00 433.67 272.00 429.00 272.00&#10;C 433.95 266.40 432.04 254.70 432.00 246.00 C 431.96 237.30 433.99 225.46 429.00 219.00&#10;C 440.53 220.03 456.35 216.00 465.75 223.25 C 475.14 230.51 471.04 247.02 460.00 249.00 Z"/>
</g>
<g stroke="None" fill-opacity="0.89" fill="#FCFCFC">
<path d="M 417.00 217.00 &#10;C 405.51 221.31 391.54 217.93 379.00 219.00&#10;C 382.29 235.26 382.29 255.74 379.00 272.00&#10;C 391.96 272.77 405.89 270.13 418.00 274.00&#10;C 418.00 270.33 418.00 266.67 418.00 263.00&#10;C 409.42 267.04 398.60 264.11 389.00 265.00&#10;C 389.00 259.33 389.00 253.67 389.00 248.00&#10;C 396.66 247.96 405.19 247.06 411.00 251.00&#10;C 411.00 247.00 411.00 243.00 411.00 239.00&#10;C 404.92 242.24 396.53 240.66 389.00 241.00&#10;C 389.00 236.00 389.00 231.00 389.00 226.00&#10;C 398.17 227.19 410.14 223.14 417.00 229.00&#10;C 417.00 225.00 417.00 221.00 417.00 217.00 Z"/>
</g>
<g stroke="None" fill-opacity="0.76" fill="#CEB172">
<path d="M 127.00 281.00 &#10;C 126.31 280.91 126.48 279.59 126.00 279.00&#10;C 125.60 278.51 123.52 279.39 123.00 279.00&#10;C 128.53 273.68 130.18 265.86 134.00 260.00&#10;C 133.85 259.74 130.96 258.41 130.00 258.00&#10;C 127.76 257.03 126.53 258.34 127.00 256.00&#10;C 126.85 256.00 126.33 254.99 126.00 255.00&#10;C 123.90 257.24 122.64 258.86 119.00 258.00&#10;C 118.65 257.92 118.23 257.28 118.00 257.00&#10;C 116.01 256.20 114.65 257.95 113.00 258.00&#10;C 110.95 258.93 111.91 259.00 110.00 259.00&#10;C 107.94 259.44 106.18 260.72 104.00 261.00&#10;C 103.51 261.06 102.43 260.83 102.00 261.00&#10;C 100.25 261.70 98.19 261.91 97.00 262.00&#10;C 94.47 262.61 93.19 264.70 90.00 264.00&#10;C 89.64 261.48 92.37 262.96 94.00 262.00&#10;C 96.76 261.04 99.26 259.96 102.00 259.00&#10;C 105.47 257.79 109.37 257.32 112.00 257.00&#10;C 113.05 256.87 113.76 256.08 115.00 256.00&#10;C 114.38 255.72 112.44 253.56 112.00 253.00&#10;C 109.98 252.09 107.62 254.01 106.00 252.00&#10;C 107.18 250.49 109.14 252.15 111.00 251.00&#10;C 112.24 250.90 113.07 252.74 113.00 250.00&#10;C 112.99 249.50 113.00 249.00 113.00 249.00&#10;C 112.99 247.72 112.42 247.15 112.00 246.00&#10;C 111.84 246.23 110.50 246.00 110.00 246.00&#10;C 109.50 246.00 109.00 246.00 109.00 246.00&#10;C 107.02 245.68 106.05 245.21 104.00 246.00&#10;C 104.83 244.53 106.07 242.75 108.00 243.00&#10;C 108.74 242.70 109.16 242.07 110.00 242.00&#10;C 110.59 241.95 112.21 242.90 113.00 243.00&#10;C 115.50 242.80 121.20 240.08 124.00 239.00&#10;C 124.71 238.73 124.86 238.16 126.00 238.00&#10;C 126.91 236.86 123.44 233.17 125.00 232.00&#10;C 121.40 231.38 118.58 233.62 115.00 233.00&#10;C 113.98 226.36 104.54 224.04 102.00 218.00&#10;C 83.67 224.80 62.04 225.51 48.00 241.00&#10;C 52.86 249.44 36.83 252.87 30.03 248.97 C 23.22 245.08 17.11 244.07 20.22 253.78 C 23.33 263.49 24.49 264.57 29.25 271.75 C 34.00 278.94 39.78 280.16 48.00 281.00 C 56.22 281.84 65.52 282.21 74.00 282.00 C 82.48 281.79 92.65 282.79 101.00 282.00 C 109.35 281.21 119.81 284.36 127.00 281.00&#10;M 104.00 228.00 &#10;C 106.26 230.26 109.51 232.07 111.00 235.00&#10;C 108.89 237.28 106.20 234.51 107.00 232.00&#10;C 103.72 230.92 94.02 234.32 95.00 230.00&#10;C 93.57 230.37 92.43 231.60 91.00 232.00&#10;C 92.18 235.08 92.09 238.58 92.00 242.00&#10;C 83.37 237.83 92.47 227.04 98.00 223.00&#10;C 100.64 223.16 102.62 226.02 104.00 228.00&#10;M 84.00 241.00 &#10;C 83.92 241.84 83.77 244.44 82.00 244.00&#10;C 84.02 240.51 78.33 236.70 82.00 235.00&#10;C 83.05 235.66 81.87 238.39 84.00 239.00&#10;C 83.95 237.33 84.04 235.67 84.00 234.00&#10;C 85.63 234.88 85.55 242.42 84.00 241.00&#10;M 70.00 240.00 &#10;C 70.71 242.65 70.45 245.10 73.00 247.00&#10;C 69.10 246.11 65.68 248.79 61.00 249.00&#10;C 65.43 247.05 69.40 243.65 65.00 239.00&#10;C 66.14 238.07 67.55 237.92 69.00 238.00&#10;C 70.60 237.51 72.39 237.64 74.00 237.00&#10;C 73.70 239.46 70.69 238.18 70.00 240.00&#10;M 59.00 249.00 &#10;C 52.78 253.00 51.97 245.30 54.00 242.00&#10;C 56.72 242.47 54.60 248.59 59.00 249.00&#10;M 94.00 250.00 &#10;C 92.75 250.21 90.59 251.96 89.00 250.00&#10;C 90.02 248.04 93.45 251.52 94.00 248.00&#10;C 95.49 247.70 97.00 246.80 99.00 248.00&#10;C 98.40 250.31 95.87 250.03 94.00 250.00&#10;M 76.00 254.00 &#10;C 74.69 254.30 72.78 254.74 71.00 255.00&#10;C 67.42 255.52 61.86 257.39 58.00 255.00&#10;C 62.08 252.72 66.31 255.69 70.00 253.00&#10;C 71.63 252.80 73.36 253.05 75.00 253.00&#10;C 77.30 252.93 79.09 252.05 81.00 253.00&#10;C 80.17 254.75 77.56 253.66 76.00 254.00&#10;M 98.00 255.00 &#10;C 97.46 255.15 95.41 257.23 95.00 255.00&#10;C 97.21 255.29 97.26 251.93 100.00 253.00&#10;C 100.94 252.44 103.25 250.86 104.00 253.00&#10;C 101.03 251.96 101.06 256.03 98.00 255.00&#10;M 42.00 255.00 &#10;C 36.37 257.40 28.81 255.50 23.00 254.00&#10;C 27.99 253.70 36.75 253.32 42.00 255.00&#10;M 58.00 255.00 &#10;C 53.91 257.24 47.84 255.40 43.00 256.00&#10;C 47.09 253.76 53.16 255.60 58.00 255.00&#10;M 88.00 258.00 &#10;C 85.41 258.41 79.37 259.66 78.00 260.00&#10;C 77.01 260.25 75.99 260.84 75.00 261.00&#10;C 72.04 261.47 70.03 260.58 67.00 261.00&#10;C 63.89 261.44 55.81 263.91 53.00 261.00&#10;C 47.38 261.51 42.48 260.05 37.00 260.00&#10;C 41.64 257.27 47.55 261.35 53.00 260.00&#10;C 55.08 257.85 62.93 259.02 66.00 259.00&#10;C 68.40 258.98 71.07 259.51 74.00 259.00&#10;C 75.71 258.70 77.20 258.30 79.00 258.00&#10;C 82.03 257.50 83.89 257.46 87.00 257.00&#10;C 88.21 256.82 91.90 254.39 93.00 257.00&#10;C 92.02 257.73 89.86 257.82 88.00 258.00&#10;M 36.00 258.00 &#10;C 33.35 260.57 29.19 257.99 26.00 258.00&#10;C 28.61 255.55 32.54 259.25 36.00 258.00&#10;M 36.00 263.00 &#10;C 34.13 265.03 29.82 263.12 28.00 262.00&#10;C 29.67 261.37 33.79 261.84 36.00 263.00&#10;M 127.00 263.00 &#10;C 126.50 263.50 127.40 265.40 127.00 266.00&#10;C 118.01 264.72 110.94 266.14 103.00 269.00&#10;C 102.08 269.12 99.73 269.33 98.00 269.00&#10;C 96.28 270.94 89.82 272.59 90.00 268.00&#10;C 92.44 270.02 95.43 268.53 98.00 268.00&#10;C 98.12 267.74 98.73 267.19 99.00 267.00&#10;C 102.29 264.72 110.62 264.89 115.00 264.00&#10;C 116.91 263.61 119.58 263.29 122.00 263.00&#10;C 123.76 262.79 131.87 261.52 127.00 263.00&#10;M 41.00 264.00 &#10;C 43.56 261.85 46.33 263.70 49.00 264.00&#10;C 56.40 264.83 69.15 262.70 75.00 265.00&#10;C 78.28 264.86 82.02 262.00 85.00 264.00&#10;C 82.10 263.10 80.94 266.92 78.00 266.00&#10;C 68.46 268.58 57.51 265.37 49.00 266.00&#10;C 46.57 266.18 42.61 266.67 41.00 265.00&#10;C 39.44 265.02 38.31 264.81 37.00 264.00&#10;C 37.47 262.66 40.58 262.43 41.00 264.00&#10;M 48.00 270.00 &#10;C 50.54 270.22 53.77 268.16 57.00 270.00&#10;C 57.11 270.06 58.98 271.18 59.00 271.00&#10;C 64.10 270.96 71.15 268.94 77.00 270.00&#10;C 76.92 271.26 74.94 270.56 75.00 272.00&#10;C 80.93 271.86 83.61 268.11 89.00 270.00&#10;C 82.99 274.10 73.65 272.56 66.00 273.00&#10;C 63.79 272.94 61.51 273.58 60.00 272.00&#10;C 57.71 271.75 55.28 272.36 53.00 272.00&#10;C 51.77 271.81 51.17 271.31 50.00 271.00&#10;C 43.76 269.37 37.07 269.36 31.00 267.00&#10;C 35.77 266.05 42.65 268.66 48.00 270.00&#10;M 123.00 272.00 &#10;C 123.48 274.66 119.47 275.32 120.00 278.00&#10;C 92.37 275.26 60.38 284.17 36.00 272.00&#10;C 64.05 281.64 94.06 274.78 123.00 272.00 Z"/>
</g>
<g stroke="None" fill-opacity="0.86" fill="#FCFCFC">
<path d="M 203.00 224.00 &#10;C 191.90 217.41 174.67 215.43 166.25 227.25 C 157.84 239.08 158.63 256.41 168.25 266.75 C 177.86 277.09 196.46 274.18 205.00 264.00&#10;C 203.18 258.40 203.28 251.09 206.00 246.00&#10;C 198.13 245.16 188.27 247.98 182.00 244.00&#10;C 182.00 247.67 182.00 251.33 182.00 255.00&#10;C 185.33 252.22 190.31 253.05 195.00 253.00&#10;C 199.86 267.18 180.71 269.53 173.75 261.25 C 166.79 252.96 167.80 239.60 173.08 231.08 C 178.36 222.57 194.96 223.65 196.00 234.00&#10;C 199.95 232.95 201.53 227.47 203.00 224.00 Z"/>
</g>
<g stroke="None" fill-opacity="0.89" fill="#FCFCFC">
<path d="M 242.00 218.00 &#10;C 210.41 215.18 205.52 269.58 237.00 273.00 C 268.48 276.42 272.69 220.74 242.00 218.00&#10;M 240.00 225.00 &#10;C 260.28 225.64 260.22 266.72 239.00 266.00 C 217.77 265.27 218.73 224.33 240.00 225.00 Z"/>
</g>
<g stroke="None" fill-opacity="0.87" fill="#FDFDFD">
<path d="M 284.00 250.00 &#10;C 297.39 252.63 316.93 246.47 311.97 230.03 C 307.02 213.58 286.42 220.40 273.00 219.00&#10;C 276.30 234.42 276.30 256.58 273.00 272.00&#10;C 277.33 272.00 281.67 272.00 286.00 272.00&#10;C 282.13 266.26 284.77 257.30 284.00 250.00&#10;M 284.00 243.00 &#10;C 284.00 237.33 284.00 231.67 284.00 226.00&#10;C 291.38 226.38 303.72 223.52 304.00 234.00 C 304.27 244.49 291.69 243.19 284.00 243.00 Z"/>
</g>
<g stroke="None" fill-opacity="0.92" fill="#FDFDFD">
<path d="M 336.00 219.00 &#10;C 332.00 219.00 328.00 219.00 324.00 219.00&#10;C 327.29 235.26 327.29 255.74 324.00 272.00&#10;C 328.00 272.00 332.00 272.00 336.00 272.00&#10;C 332.06 265.96 334.81 256.61 334.00 249.00&#10;C 341.33 249.00 348.67 249.00 356.00 249.00&#10;C 355.20 256.55 357.92 266.04 354.00 272.00&#10;C 358.00 272.00 362.00 272.00 366.00 272.00&#10;C 362.66 255.70 362.78 235.47 366.00 219.00&#10;C 362.00 219.00 358.00 219.00 354.00 219.00&#10;C 357.70 225.69 355.35 234.32 356.00 242.00&#10;C 348.67 242.00 341.33 242.00 334.00 242.00&#10;C 334.66 234.35 332.29 225.66 336.00 219.00 Z"/>
</g>
<g stroke="None" fill-opacity="0.89" fill="#FCFDFD">
<path d="M 460.00 249.00 &#10;C 471.04 247.02 475.14 230.51 465.75 223.25 C 456.35 216.00 440.53 220.03 429.00 219.00&#10;C 433.99 225.46 431.96 237.30 432.00 246.00 C 432.04 254.70 433.95 266.40 429.00 272.00&#10;C 433.67 272.00 438.33 272.00 443.00 272.00&#10;C 437.73 266.83 440.79 257.39 440.00 250.00&#10;C 444.00 250.00 448.00 250.00 452.00 250.00&#10;C 453.35 257.47 463.71 265.00 460.00 272.00&#10;C 464.33 272.00 468.67 272.00 473.00 272.00&#10;C 468.24 265.32 464.06 256.80 460.00 249.00&#10;M 440.00 243.00 &#10;C 440.00 237.33 440.00 231.67 440.00 226.00&#10;C 447.87 227.12 461.20 222.25 461.99 234.01 C 462.79 245.77 448.07 242.99 440.00 243.00 Z"/>
</g>
<g stroke="None" fill-opacity="0.00" fill="#000000">
<path d="M 95.00 230.00 &#10;C 98.07 229.20 103.16 231.89 104.00 228.00&#10;C 102.62 226.02 100.64 223.16 98.00 223.00&#10;C 92.47 227.04 83.37 237.83 92.00 242.00&#10;C 92.09 238.58 92.18 235.08 91.00 232.00&#10;C 92.43 231.60 93.57 230.37 95.00 230.00 Z"/>
</g>
<g stroke="None" fill-opacity="0.70" fill="#AD9665">
<path d="M 125.00 232.00 &#10;C 123.44 233.17 126.91 236.86 126.00 238.00&#10;C 127.01 237.86 129.02 237.72 130.00 238.00&#10;C 131.31 238.37 132.19 239.64 132.00 241.00&#10;C 129.91 239.57 128.26 243.47 125.00 242.00&#10;C 122.53 242.95 119.54 242.87 117.00 243.00&#10;C 115.88 243.28 112.60 244.65 112.00 245.00&#10;C 112.24 245.32 112.00 246.00 112.00 246.00&#10;C 112.42 247.15 112.99 247.72 113.00 249.00&#10;C 115.76 249.98 117.20 248.70 120.00 248.00&#10;C 119.55 250.28 114.22 252.96 113.00 250.00&#10;C 113.07 252.74 112.24 250.90 111.00 251.00&#10;C 111.49 251.22 111.73 252.65 112.00 253.00&#10;C 112.44 253.56 114.38 255.72 115.00 256.00&#10;C 116.56 255.90 117.07 255.90 118.00 257.00&#10;C 118.23 257.28 118.65 257.92 119.00 258.00&#10;C 121.12 257.55 123.39 255.08 126.00 255.00&#10;C 126.33 254.99 126.85 256.00 127.00 256.00&#10;C 129.94 255.91 127.68 256.19 130.00 258.00&#10;C 130.96 258.41 133.85 259.74 134.00 260.00&#10;C 138.29 267.45 127.48 272.80 126.00 279.00&#10;C 126.48 279.59 126.31 280.91 127.00 281.00&#10;C 134.64 275.83 135.24 270.26 139.22 262.22 C 143.21 254.18 141.97 246.28 145.00 237.00 C 148.03 227.72 134.88 217.46 133.00 231.00&#10;C 130.18 230.25 127.48 231.61 125.00 232.00&#10;M 142.00 228.00 &#10;C 142.26 239.17 139.64 249.62 137.00 260.00&#10;C 134.12 258.21 133.83 250.15 136.00 245.00 C 138.17 239.84 133.44 226.65 142.00 228.00&#10;M 132.00 247.00 &#10;C 132.63 252.74 125.98 248.32 123.00 249.00&#10;C 124.95 246.25 128.94 247.14 132.00 247.00 Z"/>
</g>
<g stroke="None" fill-opacity="0.00" fill="#000000">
<path d="M 240.00 225.00 &#10;C 218.73 224.33 217.77 265.27 239.00 266.00 C 260.22 266.72 260.28 225.64 240.00 225.00 Z"/>
</g>
<g stroke="None" fill-opacity="0.00" fill="#000000">
<path d="M 284.00 243.00 &#10;C 291.69 243.19 304.27 244.49 304.00 234.00 C 303.72 223.52 291.38 226.38 284.00 226.00&#10;C 284.00 231.67 284.00 237.33 284.00 243.00 Z"/>
</g>
<g stroke="None" fill-opacity="0.00" fill="#000000">
<path d="M 440.00 243.00 &#10;C 448.07 242.99 462.79 245.77 461.99 234.01 C 461.20 222.25 447.87 227.12 440.00 226.00&#10;C 440.00 231.67 440.00 237.33 440.00 243.00 Z"/>
</g>
<g stroke="None" fill-opacity="0.17" fill="#A48B63">
<path d="M 95.00 230.00 &#10;C 94.02 234.32 103.72 230.92 107.00 232.00&#10;C 106.20 234.51 108.89 237.28 111.00 235.00&#10;C 109.51 232.07 106.26 230.26 104.00 228.00&#10;C 103.16 231.89 98.07 229.20 95.00 230.00 Z"/>
</g>
<g stroke="None" fill-opacity="0.00" fill="#000000">
<path d="M 142.00 228.00 &#10;C 133.44 226.65 138.17 239.84 136.00 245.00 C 133.83 250.15 134.12 258.21 137.00 260.00&#10;C 139.64 249.62 142.26 239.17 142.00 228.00 Z"/>
</g>
<g stroke="None" fill-opacity="0.00" fill="#000000">
<path d="M 84.00 239.00 &#10;C 84.02 239.50 84.05 240.50 84.00 241.00&#10;C 85.55 242.42 85.63 234.88 84.00 234.00&#10;C 84.04 235.67 83.95 237.33 84.00 239.00 Z"/>
</g>
<g stroke="None" fill-opacity="0.01" fill="#865452">
<path d="M 84.00 241.00 &#10;C 84.05 240.50 84.02 239.50 84.00 239.00&#10;C 81.87 238.39 83.05 235.66 82.00 235.00&#10;C 78.33 236.70 84.02 240.51 82.00 244.00&#10;C 83.77 244.44 83.92 241.84 84.00 241.00 Z"/>
</g>
<g stroke="None" fill-opacity="0.00" fill="#030303">
<path d="M 69.00 238.00 &#10;C 68.02 237.48 70.19 240.71 70.00 240.00&#10;C 70.69 238.18 73.70 239.46 74.00 237.00&#10;C 72.39 237.64 70.60 237.51 69.00 238.00 Z"/>
</g>
<g stroke="None" fill-opacity="0.11" fill="#918048">
<path d="M 70.00 240.00 &#10;C 70.19 240.71 68.02 237.48 69.00 238.00&#10;C 67.55 237.92 66.14 238.07 65.00 239.00&#10;C 69.40 243.65 65.43 247.05 61.00 249.00&#10;C 65.68 248.79 69.10 246.11 73.00 247.00&#10;C 70.45 245.10 70.71 242.65 70.00 240.00 Z"/>
</g>
<g stroke="None" fill-opacity="0.05" fill="#AEAC52">
<path d="M 124.00 239.00 &#10;C 123.92 239.42 124.91 240.50 125.00 241.00&#10;C 126.58 240.02 128.53 239.38 130.00 238.00&#10;C 129.02 237.72 127.01 237.86 126.00 238.00&#10;C 124.86 238.16 124.71 238.73 124.00 239.00 Z"/>
</g>
<g stroke="None" fill-opacity="0.01" fill="#7B7C73">
<path d="M 125.00 241.00 &#10;C 125.09 241.48 125.00 242.00 125.00 242.00&#10;C 128.26 243.47 129.91 239.57 132.00 241.00&#10;C 132.19 239.64 131.31 238.37 130.00 238.00&#10;C 128.53 239.38 126.58 240.02 125.00 241.00 Z"/>
</g>
<g stroke="None" fill-opacity="0.00" fill="#000000">
<path d="M 113.00 243.00 &#10;C 114.25 243.16 115.74 243.06 117.00 243.00&#10;C 119.54 242.87 122.53 242.95 125.00 242.00&#10;C 125.00 242.00 125.09 241.48 125.00 241.00&#10;C 124.91 240.50 123.92 239.42 124.00 239.00&#10;C 121.20 240.08 115.50 242.80 113.00 243.00 Z"/>
</g>
<g stroke="None" fill-opacity="0.05" fill="#63572E">
<path d="M 59.00 249.00 &#10;C 54.60 248.59 56.72 242.47 54.00 242.00&#10;C 51.97 245.30 52.78 253.00 59.00 249.00 Z"/>
</g>
<g stroke="None" fill-opacity="0.13" fill="#8B7760">
<path d="M 108.00 243.00 &#10;C 107.80 243.40 108.00 244.00 108.00 244.00&#10;C 108.34 244.35 110.44 245.11 110.00 246.00&#10;C 110.50 246.00 111.84 246.23 112.00 246.00&#10;C 112.00 246.00 112.24 245.32 112.00 245.00&#10;C 111.91 244.89 109.98 242.00 110.00 242.00&#10;C 109.16 242.07 108.74 242.70 108.00 243.00 Z"/>
</g>
<g stroke="None" fill-opacity="0.03" fill="#E2DF50">
<path d="M 112.00 245.00 &#10;C 112.60 244.65 115.88 243.28 117.00 243.00&#10;C 115.74 243.06 114.25 243.16 113.00 243.00&#10;C 112.21 242.90 110.59 241.95 110.00 242.00&#10;C 109.98 242.00 111.91 244.89 112.00 245.00 Z"/>
</g>
<g stroke="None" fill-opacity="0.00" fill="#535445">
<path d="M 109.00 246.00 &#10;C 108.65 245.82 108.07 244.37 108.00 244.00&#10;C 108.00 244.00 107.80 243.40 108.00 243.00&#10;C 106.07 242.75 104.83 244.53 104.00 246.00&#10;C 106.05 245.21 107.02 245.68 109.00 246.00 Z"/>
</g>
<g stroke="None" fill-opacity="0.07" fill="#DBCF56">
<path d="M 109.00 246.00 &#10;C 109.00 246.00 109.50 246.00 110.00 246.00&#10;C 110.44 245.11 108.34 244.35 108.00 244.00&#10;C 108.07 244.37 108.65 245.82 109.00 246.00 Z"/>
</g>
<g stroke="None" fill-opacity="0.07" fill="#C6996B">
<path d="M 94.00 248.00 &#10;C 94.37 247.48 94.45 249.52 94.00 250.00&#10;C 95.87 250.03 98.40 250.31 99.00 248.00&#10;C 97.00 246.80 95.49 247.70 94.00 248.00 Z"/>
</g>
<g stroke="None" fill-opacity="0.07" fill="#A99F56">
<path d="M 132.00 247.00 &#10;C 128.94 247.14 124.95 246.25 123.00 249.00&#10;C 125.98 248.32 132.63 252.74 132.00 247.00 Z"/>
</g>
<g stroke="None" fill-opacity="0.01" fill="#29261A">
<path d="M 94.00 250.00 &#10;C 94.45 249.52 94.37 247.48 94.00 248.00&#10;C 93.45 251.52 90.02 248.04 89.00 250.00&#10;C 90.59 251.96 92.75 250.21 94.00 250.00 Z"/>
</g>
<g stroke="None" fill-opacity="0.03" fill="#CCBA65">
<path d="M 113.00 249.00 &#10;C 113.00 249.00 112.99 249.50 113.00 250.00&#10;C 114.22 252.96 119.55 250.28 120.00 248.00&#10;C 117.20 248.70 115.76 249.98 113.00 249.00 Z"/>
</g>
<g stroke="None" fill-opacity="0.06" fill="#D0786A">
<path d="M 112.00 253.00 &#10;C 111.73 252.65 111.49 251.22 111.00 251.00&#10;C 109.14 252.15 107.18 250.49 106.00 252.00&#10;C 107.62 254.01 109.98 252.09 112.00 253.00 Z"/>
</g>
<g stroke="None" fill-opacity="0.01" fill="#DBDC62">
<path d="M 75.00 253.00 &#10;C 75.26 253.12 75.65 253.93 76.00 254.00&#10;C 77.56 253.66 80.17 254.75 81.00 253.00&#10;C 79.09 252.05 77.30 252.93 75.00 253.00 Z"/>
</g>
<g stroke="None" fill-opacity="0.07" fill="#DECD57">
<path d="M 100.00 253.00 &#10;C 99.37 253.38 98.60 254.62 98.00 255.00&#10;C 101.06 256.03 101.03 251.96 104.00 253.00&#10;C 103.25 250.86 100.94 252.44 100.00 253.00 Z"/>
</g>
<g stroke="None" fill-opacity="0.34" fill="#A88D52">
<path d="M 42.00 255.00 &#10;C 36.75 253.32 27.99 253.70 23.00 254.00&#10;C 28.81 255.50 36.37 257.40 42.00 255.00 Z"/>
</g>
<g stroke="None" fill-opacity="0.12" fill="#CBB46E">
<path d="M 71.00 255.00 &#10;C 70.72 254.84 70.13 253.04 70.00 253.00&#10;C 66.31 255.69 62.08 252.72 58.00 255.00&#10;C 61.86 257.39 67.42 255.52 71.00 255.00 Z"/>
</g>
<g stroke="None" fill-opacity="0.00" fill="#482A1B">
<path d="M 71.00 255.00 &#10;C 72.78 254.74 74.69 254.30 76.00 254.00&#10;C 75.65 253.93 75.26 253.12 75.00 253.00&#10;C 73.36 253.05 71.63 252.80 70.00 253.00&#10;C 70.13 253.04 70.72 254.84 71.00 255.00 Z"/>
</g>
<g stroke="None" fill-opacity="0.01" fill="#744137">
<path d="M 98.00 255.00 &#10;C 98.60 254.62 99.37 253.38 100.00 253.00&#10;C 97.26 251.93 97.21 255.29 95.00 255.00&#10;C 95.41 257.23 97.46 255.15 98.00 255.00 Z"/>
</g>
<g stroke="None" fill-opacity="0.00" fill="#000000">
<path d="M 58.00 255.00 &#10;C 53.16 255.60 47.09 253.76 43.00 256.00&#10;C 47.84 255.40 53.91 257.24 58.00 255.00 Z"/>
</g>
<g stroke="None" fill-opacity="0.00" fill="#030300">
<path d="M 119.00 258.00 &#10;C 122.64 258.86 123.90 257.24 126.00 255.00&#10;C 123.39 255.08 121.12 257.55 119.00 258.00 Z"/>
</g>
<g stroke="None" fill-opacity="0.09" fill="#B6B054">
<path d="M 127.00 256.00 &#10;C 126.53 258.34 127.76 257.03 130.00 258.00&#10;C 127.68 256.19 129.94 255.91 127.00 256.00 Z"/>
</g>
<g stroke="None" fill-opacity="0.06" fill="#6D582A">
<path d="M 87.00 257.00 &#10;C 87.34 257.02 87.80 257.97 88.00 258.00&#10;C 89.86 257.82 92.02 257.73 93.00 257.00&#10;C 91.90 254.39 88.21 256.82 87.00 257.00 Z"/>
</g>
<g stroke="None" fill-opacity="0.14" fill="#B7A553">
<path d="M 102.00 259.00 &#10;C 101.80 259.10 101.75 260.75 102.00 261.00&#10;C 102.43 260.83 103.51 261.06 104.00 261.00&#10;C 107.07 259.24 107.05 259.01 110.00 259.00&#10;C 111.91 259.00 110.95 258.93 113.00 258.00&#10;C 112.67 258.01 112.26 257.24 112.00 257.00&#10;C 109.37 257.32 105.47 257.79 102.00 259.00 Z"/>
</g>
<g stroke="None" fill-opacity="0.00" fill="#020202">
<path d="M 112.00 257.00 &#10;C 112.26 257.24 112.67 258.01 113.00 258.00&#10;C 114.65 257.95 116.01 256.20 118.00 257.00&#10;C 117.07 255.90 116.56 255.90 115.00 256.00&#10;C 113.76 256.08 113.05 256.87 112.00 257.00 Z"/>
</g>
<g stroke="None" fill-opacity="0.00" fill="#050402">
<path d="M 36.00 258.00 &#10;C 32.54 259.25 28.61 255.55 26.00 258.00&#10;C 29.19 257.99 33.35 260.57 36.00 258.00 Z"/>
</g>
<g stroke="None" fill-opacity="0.08" fill="#F1A86E">
<path d="M 79.00 258.00 &#10;C 78.49 258.29 78.37 259.70 78.00 260.00&#10;C 79.37 259.66 85.41 258.41 88.00 258.00&#10;C 87.80 257.97 87.34 257.02 87.00 257.00&#10;C 83.89 257.46 82.03 257.50 79.00 258.00 Z"/>
</g>
<g stroke="None" fill-opacity="0.04" fill="#D7C46B">
<path d="M 74.00 259.00 &#10;C 74.38 259.18 74.76 260.90 75.00 261.00&#10;C 75.99 260.84 77.01 260.25 78.00 260.00&#10;C 78.37 259.70 78.49 258.29 79.00 258.00&#10;C 77.20 258.30 75.71 258.70 74.00 259.00 Z"/>
</g>
<g stroke="None" fill-opacity="0.00" fill="#632D2D">
<path d="M 104.00 261.00 &#10;C 106.18 260.72 107.94 259.44 110.00 259.00&#10;C 107.05 259.01 107.07 259.24 104.00 261.00 Z"/>
</g>
<g stroke="None" fill-opacity="0.00" fill="#000000">
<path d="M 53.00 261.00 &#10;C 52.75 260.74 53.00 260.00 53.00 260.00&#10;C 47.55 261.35 41.64 257.27 37.00 260.00&#10;C 42.48 260.05 47.38 261.51 53.00 261.00 Z"/>
</g>
<g stroke="None" fill-opacity="0.24" fill="#C0A65F">
<path d="M 53.00 260.00 &#10;C 53.00 260.00 52.75 260.74 53.00 261.00&#10;C 55.81 263.91 63.89 261.44 67.00 261.00&#10;C 65.74 260.60 66.66 259.34 66.00 259.00&#10;C 62.93 259.02 55.08 257.85 53.00 260.00 Z"/>
</g>
<g stroke="None" fill-opacity="0.00" fill="#50321D">
<path d="M 67.00 261.00 &#10;C 70.03 260.58 72.04 261.47 75.00 261.00&#10;C 74.76 260.90 74.38 259.18 74.00 259.00&#10;C 71.07 259.51 68.40 258.98 66.00 259.00&#10;C 66.66 259.34 65.74 260.60 67.00 261.00 Z"/>
</g>
<g stroke="None" fill-opacity="0.03" fill="#E2D150">
<path d="M 94.00 262.00 &#10;C 94.28 261.95 96.74 262.02 97.00 262.00&#10;C 98.19 261.91 100.25 261.70 102.00 261.00&#10;C 101.75 260.75 101.80 259.10 102.00 259.00&#10;C 99.26 259.96 96.76 261.04 94.00 262.00 Z"/>
</g>
<g stroke="None" fill-opacity="0.00" fill="#000000">
<path d="M 126.00 279.00 &#10;C 127.48 272.80 138.29 267.45 134.00 260.00&#10;C 130.18 265.86 128.53 273.68 123.00 279.00&#10;C 123.52 279.39 125.60 278.51 126.00 279.00 Z"/>
</g>
<g stroke="None" fill-opacity="0.00" fill="#000000">
<path d="M 36.00 263.00 &#10;C 33.79 261.84 29.67 261.37 28.00 262.00&#10;C 29.82 263.12 34.13 265.03 36.00 263.00 Z"/>
</g>
<g stroke="None" fill-opacity="0.04" fill="#4F2E20">
<path d="M 94.00 262.00 &#10;C 92.37 262.96 89.64 261.48 90.00 264.00&#10;C 93.19 264.70 94.47 262.61 97.00 262.00&#10;C 96.74 262.02 94.28 261.95 94.00 262.00 Z"/>
</g>
<g stroke="None" fill-opacity="0.33" fill="#A99765">
<path d="M 122.00 263.00 &#10;C 122.24 263.07 122.65 263.90 123.00 264.00&#10;C 124.59 263.73 125.50 263.46 127.00 263.00&#10;C 131.87 261.52 123.76 262.79 122.00 263.00 Z"/>
</g>
<g stroke="None" fill-opacity="0.00" fill="#000000">
<path d="M 41.00 265.00 &#10;C 40.75 264.74 41.00 264.00 41.00 264.00&#10;C 40.58 262.43 37.47 262.66 37.00 264.00&#10;C 38.31 264.81 39.44 265.02 41.00 265.00 Z"/>
</g>
<g stroke="None" fill-opacity="0.14" fill="#7C6C47">
<path d="M 41.00 264.00 &#10;C 41.00 264.00 40.75 264.74 41.00 265.00&#10;C 42.61 266.67 46.57 266.18 49.00 266.00&#10;C 49.19 265.92 49.25 264.25 49.00 264.00&#10;C 46.33 263.70 43.56 261.85 41.00 264.00 Z"/>
</g>
<g stroke="None" fill-opacity="0.01" fill="#8A4643">
<path d="M 75.00 265.00 &#10;C 76.03 265.41 76.42 266.01 78.00 266.00&#10;C 80.94 266.92 82.10 263.10 85.00 264.00&#10;C 82.02 262.00 78.28 264.86 75.00 265.00 Z"/>
</g>
<g stroke="None" fill-opacity="0.00" fill="#FEFF00">
<path d="M 115.00 264.00 &#10;C 117.97 263.92 120.95 264.35 123.00 264.00&#10;C 122.65 263.90 122.24 263.07 122.00 263.00&#10;C 119.58 263.29 116.91 263.61 115.00 264.00 Z"/>
</g>
<g stroke="None" fill-opacity="0.00" fill="#010101">
<path d="M 123.00 264.00 &#10;C 120.95 264.35 117.97 263.92 115.00 264.00&#10;C 110.62 264.89 102.29 264.72 99.00 267.00&#10;C 100.83 266.48 101.46 268.73 103.00 269.00&#10;C 110.94 266.14 118.01 264.72 127.00 266.00&#10;C 127.40 265.40 126.50 263.50 127.00 263.00&#10;C 125.50 263.46 124.59 263.73 123.00 264.00 Z"/>
</g>
<g stroke="None" fill-opacity="0.06" fill="#BEAB5E">
<path d="M 49.00 266.00 &#10;C 57.51 265.37 68.46 268.58 78.00 266.00&#10;C 76.42 266.01 76.03 265.41 75.00 265.00&#10;C 69.15 262.70 56.40 264.83 49.00 264.00&#10;C 49.25 264.25 49.19 265.92 49.00 266.00 Z"/>
</g>
<g stroke="None" fill-opacity="0.02" fill="#010100">
<path d="M 50.00 271.00 &#10;C 49.20 270.53 49.10 270.35 48.00 270.00&#10;C 42.65 268.66 35.77 266.05 31.00 267.00&#10;C 37.07 269.36 43.76 269.37 50.00 271.00 Z"/>
</g>
<g stroke="None" fill-opacity="0.09" fill="#FBE449">
<path d="M 98.00 268.00 &#10;C 97.81 268.41 98.00 269.00 98.00 269.00&#10;C 99.73 269.33 102.08 269.12 103.00 269.00&#10;C 101.46 268.73 100.83 266.48 99.00 267.00&#10;C 98.73 267.19 98.12 267.74 98.00 268.00 Z"/>
</g>
<g stroke="None" fill-opacity="0.00" fill="#080401">
<path d="M 98.00 269.00 &#10;C 98.00 269.00 97.81 268.41 98.00 268.00&#10;C 95.43 268.53 92.44 270.02 90.00 268.00&#10;C 89.82 272.59 96.28 270.94 98.00 269.00 Z"/>
</g>
<g stroke="None" fill-opacity="0.15" fill="#A98E63">
<path d="M 48.00 270.00 &#10;C 49.10 270.35 49.20 270.53 50.00 271.00&#10;C 51.17 271.31 51.77 271.81 53.00 272.00&#10;C 53.39 272.00 56.72 269.98 57.00 270.00&#10;C 53.77 268.16 50.54 270.22 48.00 270.00 Z"/>
</g>
<g stroke="None" fill-opacity="0.00" fill="#000000">
<path d="M 75.00 272.00 &#10;C 74.50 272.01 74.00 272.00 74.00 272.00&#10;C 71.37 272.00 68.62 271.76 66.00 272.00&#10;C 65.75 272.26 66.00 273.00 66.00 273.00&#10;C 73.65 272.56 82.99 274.10 89.00 270.00&#10;C 83.61 268.11 80.93 271.86 75.00 272.00 Z"/>
</g>
<g stroke="None" fill-opacity="0.00" fill="#000000">
<path d="M 53.00 272.00 &#10;C 55.28 272.36 57.71 271.75 60.00 272.00&#10;C 59.75 271.74 58.98 271.12 59.00 271.00&#10;C 58.98 271.18 57.11 270.06 57.00 270.00&#10;C 56.72 269.98 53.39 272.00 53.00 272.00 Z"/>
</g>
<g stroke="None" fill-opacity="0.05" fill="#C49D68">
<path d="M 59.00 271.00 &#10;C 58.98 271.12 59.75 271.74 60.00 272.00&#10;C 61.51 273.58 63.79 272.94 66.00 273.00&#10;C 66.00 273.00 65.75 272.26 66.00 272.00&#10;C 67.76 270.18 72.22 270.68 74.00 272.00&#10;C 74.00 272.00 74.50 272.01 75.00 272.00&#10;C 74.94 270.56 76.92 271.26 77.00 270.00&#10;C 71.15 268.94 64.10 270.96 59.00 271.00 Z"/>
</g>
<g stroke="None" fill-opacity="0.01" fill="#A9AA55">
<path d="M 66.00 272.00 &#10;C 68.62 271.76 71.37 272.00 74.00 272.00&#10;C 72.22 270.68 67.76 270.18 66.00 272.00 Z"/>
</g>
<g stroke="None" fill-opacity="0.00" fill="#000000">
<path d="M 123.00 272.00 &#10;C 94.06 274.78 64.05 281.64 36.00 272.00&#10;C 60.38 284.17 92.37 275.26 120.00 278.00&#10;C 119.47 275.32 123.48 274.66 123.00 272.00 Z"/>
</g>
</svg>